<?xml version="1.0" encoding="UTF-8" standalone="no"?>
<!DOCTYPE svg PUBLIC "-//W3C//DTD SVG 1.1//EN" "http://www.w3.org/Graphics/SVG/1.1/DTD/svg11.dtd">
<svg width="100%" height="100%" viewBox="0 0 24 24" version="1.1" xmlns="http://www.w3.org/2000/svg" xmlns:xlink="http://www.w3.org/1999/xlink" xml:space="preserve" xmlns:serif="http://www.serif.com/" style="fill-rule:evenodd;clip-rule:evenodd;stroke-linejoin:round;stroke-miterlimit:2;">
    <g transform="matrix(1,0,0,1,-1116.3,-164.112)">
        <g transform="matrix(0.257151,0,0,0.257151,1051.02,-11.7972)">
            <g transform="matrix(0.327475,0,0,0.327475,117.95,498.391)">
                <rect x="415" y="567" width="285" height="285" style="fill:white;fill-opacity:0;"/>
            </g>
        </g>
        <g transform="matrix(0.257151,0,0,0.257151,1051.02,-11.7972)">
            <g transform="matrix(0.842667,0,0,0.842667,-508.443,528.249)">
                <path d="M920.413,230.731C917.873,227.742 916.445,223.922 916.445,219.941C916.445,211.549 922.787,204.401 931.119,203.402C932.471,195.424 939.451,189.528 947.542,189.528C952.311,189.528 956.857,191.576 960.017,195.147C963.177,191.576 967.724,189.528 972.493,189.528C980.584,189.528 987.564,195.424 988.916,203.402C997.232,204.414 1003.56,211.552 1003.56,219.93C1003.56,223.915 1002.12,227.738 999.579,230.727C998.971,231.44 998.303,232.109 997.57,232.715C993.854,235.787 991.651,240.328 991.598,245.149L994.598,277.967C985.873,282.377 973.452,286.399 963.568,289.843C962.566,290.192 961.567,290.533 960.57,290.865C960.38,290.928 960.19,290.991 960,291.054C959.81,290.991 959.62,290.928 959.429,290.865C958.433,290.533 957.434,290.192 956.432,289.843C946.545,286.398 934.12,282.374 925.392,277.962L928.392,245.149C928.338,240.326 926.129,235.789 922.413,232.715C921.683,232.111 921.018,231.443 920.413,230.731ZM978.119,225.181C968.112,225.181 960,217.164 960,207.275C960,217.164 951.888,225.181 941.881,225.181C951.888,225.181 960,233.198 960,243.087C960,233.198 968.112,225.181 978.119,225.181Z"/>
            </g>
        </g>
    </g>
</svg>
