<svg width="162" height="162" viewBox="0 0 162 162" fill="none" xmlns="http://www.w3.org/2000/svg">
<g clip-path="url(#clip0_46_2)">
<path d="M103.035 11.1123C114.575 11.1123 124.555 19.5425 126.484 30.9209L127.232 35.334L131.675 35.875C143.535 37.3185 152.582 47.5267 152.582 59.4697C152.582 65.1442 150.532 70.6052 146.899 74.8818C146.017 75.916 145.068 76.8628 144.049 77.7051C136.067 84.3041 131.31 94.0806 131.196 104.495L130.882 132.833L130.635 155.237L80.6956 155.233L30.7532 155.229L30.5022 132.827L30.1838 104.494C30.0671 94.0702 25.2936 84.304 17.3176 77.7061C16.3078 76.8704 15.3666 75.9276 14.4905 74.8965C10.862 70.6266 8.82358 65.1708 8.82349 59.4902C8.82349 47.5229 17.8933 37.3005 29.7747 35.876L34.2268 35.3418L34.9758 30.9209C36.9042 19.5424 46.8844 11.1123 58.4241 11.1123C65.232 11.1123 71.7243 14.0368 76.2356 19.1348L80.7288 24.2129L85.2219 19.1348C89.733 14.037 96.2271 11.1124 103.035 11.1123Z" stroke="black" stroke-width="12"/>
<path fill-rule="evenodd" clip-rule="evenodd" d="M123 83C99.8037 83 81 59.5832 81 37C81 59.5832 62.1963 83 39 83C62.1963 83 81 106.417 81 129C81 106.417 99.8037 83 123 83Z" fill="black"/>
</g>
<defs>
<clipPath id="clip0_46_2">
<rect width="162" height="162" fill="white"/>
</clipPath>
</defs>
</svg>
